<svg width="75" height="74" viewBox="0 0 75 74" fill="none" xmlns="http://www.w3.org/2000/svg">
    <path
        d="M72.0126 25.1882H65.0203C64.2436 23.3637 63.2865 21.6214 62.1632 19.9873C61.6747 19.2777 61.1584 18.594 60.6141 17.9363C61.1492 16.7565 61.3569 15.2724 61.2285 13.4984C61.211 13.2554 61.1061 13.0269 60.9333 12.8551C60.7604 12.6833 60.5313 12.5799 60.2882 12.5638C58.4593 12.4326 56.9406 12.6561 55.745 13.2301C52.5647 10.7818 48.9249 8.99745 45.0417 7.98309C45.2567 6.95165 45.3194 5.89428 45.2278 4.84467C45.2104 4.60255 45.1063 4.37481 44.9347 4.20317C44.763 4.03152 44.5353 3.92747 44.2932 3.91006C41.4259 3.70381 39.3173 4.37015 38.025 5.89033C37.8273 6.12161 37.6516 6.37076 37.5 6.63455C37.3486 6.36926 37.1729 6.11866 36.975 5.886C35.6769 4.36582 33.5755 3.69949 30.7068 3.90573C30.4647 3.92314 30.2369 4.0272 30.0653 4.19884C29.8936 4.37048 29.7896 4.59822 29.7722 4.84034C29.6802 5.88653 29.7424 6.94056 29.9568 7.96867C29.0914 8.19174 28.2405 8.45376 27.4039 8.75472C24.1705 9.92185 21.1611 11.6346 18.5064 13.8186C17.2084 12.809 15.3594 12.3893 12.9954 12.5595C12.7533 12.5769 12.5256 12.6809 12.3539 12.8526C12.1823 13.0242 12.0782 13.252 12.0608 13.4941C11.8834 15.946 12.3493 17.8411 13.4353 19.1479C10.0049 23.7974 7.99322 29.3404 7.64312 35.1079C7.29302 40.8754 8.61942 46.621 11.4623 51.6513C12.7312 53.8869 14.2823 55.9499 16.0776 57.7897H12.7474C11.8224 57.7909 10.9357 58.1588 10.2816 58.8129C9.62756 59.4669 9.25961 60.3537 9.25847 61.2786C9.25847 61.6684 9.10362 62.0422 8.828 62.3179C8.55238 62.5935 8.17856 62.7483 7.78877 62.7483H2.79989C2.53212 62.7483 2.27533 62.8547 2.08599 63.044C1.89665 63.2334 1.79028 63.4902 1.79028 63.7579C1.79028 64.0257 1.89665 64.2825 2.08599 64.4718C2.27533 64.6612 2.53212 64.7675 2.79989 64.7675H7.78877C8.7136 64.7664 9.6002 64.3984 10.254 63.7443C10.9078 63.0902 11.2755 62.2035 11.2762 61.2786C11.2766 60.889 11.4316 60.5154 11.7071 60.2398C11.9827 59.9643 12.3563 59.8093 12.7459 59.8089H18.2411C23.609 64.3356 30.4018 66.8234 37.4235 66.8343H37.5C41.4949 66.8481 45.4514 66.0547 49.1321 64.5017C52.8128 62.9488 56.1418 60.6682 58.9194 57.7969C60.0345 56.6528 61.0565 55.4215 61.9757 54.1148C64.6879 50.2482 66.4479 45.7953 67.1121 41.1192C67.7763 36.4432 67.3259 31.6763 65.7977 27.2074H72.0126C72.2803 27.2074 72.5371 27.101 72.7265 26.9117C72.9158 26.7223 73.0222 26.4655 73.0222 26.1978C73.0222 25.93 72.9158 25.6732 72.7265 25.4839C72.5371 25.2945 72.2803 25.1882 72.0126 25.1882ZM57.9445 18.2219C56.9536 19.07 55.5589 19.1089 54.7454 19.0426C54.6805 18.2306 54.7195 16.8388 55.5575 15.8522C56.2887 14.9869 57.5247 14.5542 59.2411 14.5542C59.2324 16.2575 58.7968 17.4907 57.9445 18.2219ZM39.5624 7.19848C40.2937 6.33311 41.5297 5.90042 43.2461 5.90042C43.2374 7.61098 42.8018 8.84558 41.948 9.57538C40.9615 10.4162 39.5639 10.4566 38.7504 10.3845C38.6855 9.57682 38.7245 8.18501 39.5624 7.19848ZM35.4303 7.18983C36.2783 8.18068 36.3173 9.57682 36.2495 10.3888C35.4361 10.4552 34.0414 10.4162 33.0505 9.56817C32.1981 8.83837 31.7625 7.60377 31.7524 5.89321C33.4616 5.90186 34.699 6.33599 35.4303 7.18983ZM25.5347 14.5455C25.5261 16.2561 25.0919 17.4892 24.2367 18.2205C23.2458 19.07 21.8497 19.1075 21.0377 19.0411C20.9713 18.2277 21.0088 16.833 21.8569 15.8421C22.5896 14.9897 23.8242 14.5542 25.529 14.547L25.5347 14.5455ZM17.7189 15.8436C18.567 16.833 18.606 18.2291 18.5396 19.0411C17.7276 19.1075 16.3343 19.0685 15.3478 18.2291C14.4824 17.4993 14.0498 16.2618 14.0498 14.547C15.7531 14.5556 16.9877 14.9897 17.7189 15.8436ZM17.4305 44.388C17.4607 44.6151 17.4757 44.8439 17.4752 45.073C17.47 46.3283 17.0143 47.5399 16.1911 48.4875C15.3679 49.4352 14.2318 50.0558 12.9897 50.2365C11.0957 46.7446 9.96805 42.8889 9.68204 38.9268C9.39603 34.9646 9.95819 30.987 11.331 27.2593C12.8 26.8475 14.3615 26.9099 15.7928 27.4379C17.2241 27.9658 18.4522 28.9321 19.302 30.1991C20.1517 31.4662 20.5797 32.9691 20.5249 34.4937C20.4701 36.0184 19.9353 37.4867 18.9968 38.6895C18.3735 39.4894 17.9143 40.4046 17.6457 41.3826C17.3772 42.3605 17.3045 43.3819 17.4319 44.388H17.4305ZM39.0331 64.7733C39.0331 64.6651 39.0331 64.5815 39.0331 64.5382C39.0339 63.4029 39.485 62.3142 40.2876 61.5111C41.0901 60.708 42.1785 60.2561 43.3138 60.2546C44.9941 60.2546 46.2085 61.1777 46.9326 61.9536C47.208 62.2503 47.4565 62.5708 47.6753 62.9113C44.9126 63.9896 41.9948 64.6183 39.0331 64.7733ZM65.391 36.9991C65.3877 42.7119 63.6185 48.284 60.3257 52.9523C57.5146 56.9487 53.7102 60.1431 49.2878 62.2204C48.9772 61.7027 48.6127 61.2192 48.2003 60.7782C46.846 59.3286 45.1124 58.5296 43.3167 58.5296C41.7226 58.5319 40.1944 59.1664 39.0675 60.2939C37.9405 61.4214 37.3068 62.9498 37.3053 64.544C37.3053 64.5916 37.3053 64.6882 37.3053 64.818C32.3444 64.7854 27.4822 63.4286 23.2213 60.8878C22.653 60.5474 22.0987 60.1878 21.5583 59.8089H25.1568C25.4246 59.8089 25.6814 59.7026 25.8707 59.5132C26.0601 59.3239 26.1664 59.0671 26.1664 58.7993C26.1664 58.5316 26.0601 58.2748 25.8707 58.0854C25.6814 57.8961 25.4246 57.7897 25.1568 57.7897H18.9983C17.0334 56.0463 15.3235 54.0353 13.9185 51.8158C15.5792 51.4072 17.0308 50.4007 17.9957 48.9887C18.9606 47.5767 19.371 45.8586 19.1483 44.163C19.0493 43.3837 19.1055 42.5925 19.3137 41.835C19.5219 41.0776 19.8779 40.3688 20.3612 39.7496C21.4181 38.3955 22.0642 36.7667 22.2229 35.0564C22.3816 33.3461 22.0463 31.6262 21.2566 30.1009C20.467 28.5755 19.2563 27.3088 17.7681 26.451C16.28 25.5932 14.577 25.1805 12.8613 25.2617C12.6147 25.2733 12.3695 25.2964 12.1257 25.3281C12.9146 23.5952 13.8813 21.9488 15.0103 20.4156C15.9501 20.8724 16.9844 21.1007 18.029 21.082C18.2209 21.082 18.4012 21.082 18.5685 21.0647V24.5521C18.5685 24.8199 18.6748 25.0767 18.8642 25.266C19.0535 25.4554 19.3103 25.5617 19.5781 25.5617C19.8458 25.5617 20.1026 25.4554 20.292 25.266C20.4813 25.0767 20.5877 24.8199 20.5877 24.5521V21.0257C20.9118 21.0636 21.2378 21.0823 21.5641 21.082C22.7179 21.082 24.2843 20.8397 25.5448 19.7681C27.065 18.47 27.7313 16.3657 27.5236 13.4984C27.5063 13.2565 27.4024 13.029 27.2311 12.8574C27.0597 12.6857 26.8323 12.5815 26.5905 12.5638C25.62 12.481 24.6428 12.5266 23.6843 12.6994C25.0908 11.8916 26.5657 11.2092 28.0919 10.66C28.9501 10.3513 29.8227 10.0831 30.7053 9.86816C30.9864 10.3379 31.342 10.7588 31.7582 11.1143C33.0188 12.1859 34.5808 12.4282 35.7404 12.4282C36.0187 12.4282 36.2755 12.4153 36.4976 12.3951V15.8984C36.4976 16.1661 36.6039 16.4229 36.7933 16.6123C36.9826 16.8016 37.2394 16.908 37.5072 16.908C37.7749 16.908 38.0317 16.8016 38.2211 16.6123C38.4104 16.4229 38.5168 16.1661 38.5168 15.8984V12.3951C38.7389 12.4153 38.9956 12.4282 39.274 12.4282C40.4278 12.4282 41.9956 12.1859 43.2562 11.1143C43.6691 10.761 44.0226 10.3436 44.3033 9.87826C47.8293 10.7662 51.148 12.334 54.0733 14.4936L54.0272 14.5455C53.8271 14.776 53.6489 15.0247 53.495 15.2883C53.3436 15.023 53.1679 14.7724 52.97 14.5397C51.6719 13.0196 49.5691 12.3532 46.7018 12.5595C46.4597 12.5769 46.2319 12.6809 46.0603 12.8526C45.8886 13.0242 45.7846 13.252 45.7672 13.4941C45.5595 16.3614 46.2258 18.4714 47.746 19.7637C49.0066 20.8353 50.5686 21.0777 51.7267 21.0777C51.9964 21.0777 52.2416 21.0647 52.458 21.0459V24.5478C52.458 24.8156 52.5643 25.0724 52.7537 25.2617C52.943 25.451 53.1998 25.5574 53.4676 25.5574C53.7353 25.5574 53.9921 25.451 54.1815 25.2617C54.3708 25.0724 54.4772 24.8156 54.4772 24.5478V21.0459C54.7065 21.0676 54.9719 21.082 55.2618 21.082C56.4156 21.082 57.9834 20.8397 59.244 19.7681C59.293 19.7262 59.3391 19.6815 59.3882 19.6368C59.7718 20.1214 60.1425 20.619 60.4944 21.1325C61.3796 22.4169 62.1549 23.7736 62.8122 25.1882H59.6031C58.6785 25.1893 57.7921 25.5571 57.1383 26.2109C56.4846 26.8647 56.1168 27.7511 56.1156 28.6756C56.1149 29.0651 55.9597 29.4383 55.6842 29.7135C55.4087 29.9887 55.0354 30.1435 54.6459 30.1439H49.6556C49.3878 30.1439 49.131 30.2503 48.9417 30.4396C48.7524 30.6289 48.646 30.8857 48.646 31.1535C48.646 31.4213 48.7524 31.6781 48.9417 31.8674C49.131 32.0567 49.3878 32.1631 49.6556 32.1631H54.6459C55.5709 32.162 56.4576 31.794 57.1117 31.14C57.7657 30.4859 58.1337 29.5992 58.1348 28.6742C58.1356 28.285 58.2905 27.912 58.5657 27.6368C58.8409 27.3616 59.2139 27.2067 59.6031 27.2059H63.6545C64.8161 30.3397 65.4044 33.657 65.391 36.9991ZM52.2445 19.0383C51.4311 19.1046 50.0364 19.0657 49.0455 18.2176C48.1917 17.4863 47.7575 16.2532 47.7474 14.5426C49.458 14.5513 50.6926 14.9854 51.4239 15.8407C52.2734 16.8344 52.3123 18.2306 52.2445 19.0383Z"
        fill="#7C6A0A" />
    <path
        d="M46.1293 36.2968C45.0558 36.2979 44.0265 36.7248 43.2673 37.4837C42.5081 38.2427 42.0809 39.2718 42.0793 40.3453C42.0793 40.6513 42.2009 40.9448 42.4173 41.1611C42.6337 41.3775 42.9272 41.4991 43.2332 41.4991C43.5392 41.4991 43.8327 41.3775 44.0491 41.1611C44.2654 40.9448 44.387 40.6513 44.387 40.3453C44.4001 39.892 44.5893 39.4618 44.9144 39.1458C45.2396 38.8298 45.6752 38.6531 46.1286 38.6531C46.582 38.6531 47.0175 38.8298 47.3427 39.1458C47.6679 39.4618 47.8571 39.892 47.8701 40.3453C47.8701 40.6513 47.9917 40.9448 48.2081 41.1611C48.4245 41.3775 48.718 41.4991 49.024 41.4991C49.33 41.4991 49.6235 41.3775 49.8399 41.1611C50.0562 40.9448 50.1778 40.6513 50.1778 40.3453C50.1767 39.2719 49.7498 38.2428 48.9908 37.4838C48.2318 36.7248 47.2027 36.2979 46.1293 36.2968Z"
        fill="#7C6A0A" />
    <path
        d="M42.0707 45.0774C41.7646 45.0774 41.4712 45.199 41.2548 45.4153C41.0384 45.6317 40.9168 45.9252 40.9168 46.2312C40.9168 47.2682 40.5049 48.2628 39.7716 48.996C39.0383 49.7293 38.0438 50.1413 37.0068 50.1413C35.9698 50.1413 34.9752 49.7293 34.242 48.996C33.5087 48.2628 33.0967 47.2682 33.0967 46.2312C33.0967 45.9252 32.9752 45.6317 32.7588 45.4153C32.5424 45.199 32.2489 45.0774 31.9429 45.0774C31.6369 45.0774 31.3434 45.199 31.127 45.4153C30.9106 45.6317 30.7891 45.9252 30.7891 46.2312C30.7891 47.8803 31.4441 49.4618 32.6102 50.6278C33.7762 51.7939 35.3577 52.4489 37.0068 52.4489C38.6558 52.4489 40.2373 51.7939 41.4034 50.6278C42.5694 49.4618 43.2245 47.8803 43.2245 46.2312C43.2245 45.9252 43.1029 45.6317 42.8865 45.4153C42.6702 45.199 42.3767 45.0774 42.0707 45.0774Z"
        fill="#7C6A0A" />
    <path
        d="M31.9659 40.3452C31.9459 39.2845 31.5105 38.2741 30.7533 37.531C29.9961 36.788 28.9775 36.3717 27.9167 36.3717C26.8558 36.3717 25.8373 36.788 25.0801 37.531C24.3229 38.2741 23.8875 39.2845 23.8674 40.3452C23.8674 40.6512 23.989 40.9447 24.2054 41.1611C24.4218 41.3775 24.7152 41.4991 25.0213 41.4991C25.3273 41.4991 25.6208 41.3775 25.8371 41.1611C26.0535 40.9447 26.1751 40.6512 26.1751 40.3452C26.1881 39.892 26.3773 39.4617 26.7025 39.1458C27.0277 38.8298 27.4633 38.6531 27.9167 38.6531C28.3701 38.6531 28.8056 38.8298 29.1308 39.1458C29.456 39.4617 29.6452 39.892 29.6582 40.3452C29.6582 40.6512 29.7798 40.9447 29.9962 41.1611C30.2126 41.3775 30.506 41.4991 30.8121 41.4991C31.1181 41.4991 31.4116 41.3775 31.6279 41.1611C31.8443 40.9447 31.9659 40.6512 31.9659 40.3452Z"
        fill="#7C6A0A" />
    <path
        d="M67.9684 65.8638C66.3458 65.1917 66.0025 64.847 65.3362 63.2259C65.2215 62.9492 65.0274 62.7128 64.7784 62.5464C64.5294 62.3801 64.2366 62.2913 63.9372 62.2913C63.6377 62.2913 63.3449 62.3801 63.0959 62.5464C62.8469 62.7128 62.6528 62.9492 62.5381 63.2259C61.866 64.847 61.5213 65.1917 59.9002 65.8638C59.6235 65.9785 59.3871 66.1726 59.2207 66.4216C59.0544 66.6706 58.9656 66.9634 58.9656 67.2628C58.9656 67.5623 59.0544 67.8551 59.2207 68.1041C59.3871 68.3531 59.6235 68.5472 59.9002 68.6619C61.4867 69.3181 61.8805 69.7133 62.5367 71.2984C62.6511 71.5755 62.8452 71.8124 63.0944 71.9791C63.3436 72.1458 63.6366 72.2347 63.9364 72.2347C64.2362 72.2347 64.5293 72.1458 64.7785 71.9791C65.0276 71.8124 65.2218 71.5755 65.3362 71.2984C65.9924 69.7119 66.3876 69.3167 67.9727 68.6604C68.2493 68.5458 68.4858 68.3517 68.6522 68.1026C68.8185 67.8536 68.9073 67.5609 68.9073 67.2614C68.9073 66.9619 68.8185 66.6692 68.6522 66.4202C68.4858 66.1711 68.2493 65.977 67.9727 65.8624L67.9684 65.8638ZM63.9299 70.1748C63.2376 68.6561 62.5367 67.9551 61.018 67.2628C62.5526 66.5677 63.2333 65.8869 63.9299 64.3509C64.6251 65.8869 65.3059 66.5677 66.8419 67.2628C65.3261 67.9551 64.6237 68.6532 63.9328 70.1748H63.9299Z"
        fill="#7C6A0A" />
    <path
        d="M4.56245 8.64505C6.14897 9.30129 6.54271 9.69504 7.19896 11.2816C7.31361 11.5582 7.50771 11.7947 7.75673 11.961C8.00575 12.1274 8.2985 12.2162 8.59798 12.2162C8.89745 12.2162 9.1902 12.1274 9.43922 11.961C9.68824 11.7947 9.88234 11.5582 9.997 11.2816C10.6547 9.69504 11.0484 9.30129 12.6349 8.64505C12.9115 8.5301 13.1478 8.3358 13.314 8.08669C13.4803 7.83757 13.569 7.54479 13.569 7.24531C13.569 6.94582 13.4803 6.65304 13.314 6.40392C13.1478 6.15481 12.9115 5.96051 12.6349 5.84556C11.0138 5.1749 10.6691 4.83596 9.99844 3.20905C9.88349 2.9325 9.6892 2.6962 9.44008 2.52997C9.19096 2.36374 8.89819 2.27502 8.5987 2.27502C8.29921 2.27502 8.00643 2.36374 7.75732 2.52997C7.5082 2.6962 7.31391 2.9325 7.19896 3.20905C6.52829 4.83019 6.18935 5.1749 4.56245 5.84556C4.2859 5.96051 4.0496 6.15481 3.88336 6.40392C3.71713 6.65304 3.62842 6.94582 3.62842 7.24531C3.62842 7.54479 3.71713 7.83757 3.88336 8.08669C4.0496 8.3358 4.2859 8.5301 4.56245 8.64505ZM8.60086 4.33404C9.2946 5.87008 9.97537 6.5494 11.51 7.24603C9.99123 7.93256 9.29028 8.63928 8.59798 10.158C7.90712 8.63928 7.21194 7.93256 5.68599 7.24603C7.22203 6.5494 7.90279 5.87008 8.59798 4.33404H8.60086Z"
        fill="#7C6A0A" />
</svg>