<svg width="26" height="26" viewBox="0 0 26 26" fill="none" xmlns="http://www.w3.org/2000/svg">
    <path
        d="M21.2618 6.58811V6.58893C21.2618 7.40792 20.5977 8.07119 19.7796 8.07119C18.9614 8.07119 18.2973 7.4071 18.2973 6.58893C18.2973 5.76994 18.9614 5.10667 19.7796 5.10667C20.5977 5.1075 21.261 5.76994 21.2618 6.58811ZM13.1831 17.3017C10.9082 17.3017 9.06428 15.4578 9.06428 13.1829C9.06428 10.908 10.9082 9.06404 13.1831 9.06404C15.458 9.06404 17.302 10.908 17.302 13.1829C17.302 15.457 15.4588 17.3009 13.1848 17.3009H13.184L13.1831 17.3017ZM13.1831 6.83858C9.67894 6.83858 6.83883 9.67951 6.83883 13.1829C6.83883 16.6863 9.67976 19.5272 13.1831 19.5272C16.6873 19.5272 19.5274 16.6863 19.5274 13.1829V13.1821C19.5274 9.67869 16.6873 6.83776 13.1831 6.83776H13.1823L13.1831 6.83858ZM13.1831 3.05178C16.4813 3.05178 16.8744 3.06825 18.177 3.12511C19.0034 3.13499 19.7895 3.29154 20.517 3.56838L20.47 3.55273C21.5527 3.97458 22.3931 4.815 22.8059 5.86964L22.8158 5.89765C23.0761 6.57822 23.231 7.36508 23.2409 8.18654V8.19066C23.2994 9.49413 23.3126 9.8855 23.3126 13.1845C23.3126 16.4836 23.2969 16.8758 23.2368 18.1784C23.2211 19.0056 23.0638 19.7917 22.7878 20.5192L22.8034 20.4714C22.5908 21.0284 22.2761 21.503 21.8781 21.8935L21.8773 21.8944C21.4876 22.2931 21.013 22.6079 20.4832 22.8081L20.4568 22.8172C19.7738 23.0775 18.9845 23.2324 18.1597 23.2423H18.1556C16.8439 23.3008 16.4575 23.314 13.1526 23.314C9.84619 23.314 9.46059 23.2984 8.14971 23.2382C7.31918 23.2225 6.52985 23.0652 5.79902 22.7892L5.84763 22.8048C5.29065 22.5955 4.81607 22.28 4.42882 21.8804L4.42799 21.8795C4.02509 21.4923 3.7087 21.0169 3.51013 20.4846L3.50189 20.4591C3.24235 19.7768 3.08498 18.9883 3.06932 18.1644V18.1578C3.02318 16.8601 3.0067 16.4597 3.0067 13.1705C3.0067 9.87973 3.02318 9.47847 3.06932 8.16512C3.08498 7.33542 3.24152 6.54691 3.51754 5.8169L3.50189 5.86552C3.7054 5.30606 4.02262 4.82983 4.42717 4.44505L4.42882 4.4434C4.81442 4.03803 5.28983 3.72246 5.82292 3.52719L5.84846 3.51895C6.52656 3.25694 7.31012 3.09956 8.12911 3.08556H8.13488C9.44741 3.03942 9.83383 3.02376 13.1378 3.02376L13.1831 3.05178ZM13.1831 0.827148C9.82642 0.827148 9.40786 0.842803 8.08956 0.901303C7.00609 0.924373 5.97864 1.13365 5.02782 1.49701L5.09044 1.47641C4.23354 1.80351 3.50354 2.28881 2.90206 2.90017L2.90124 2.901C2.28741 3.50247 1.80293 4.2333 1.48984 5.049L1.47583 5.09019C1.13307 5.97839 0.923793 7.00667 0.901547 8.07943V8.08932C0.839752 9.40762 0.827393 9.82618 0.827393 13.1829C0.827393 16.5396 0.843047 16.9582 0.901547 18.2765C0.924617 19.3599 1.1339 20.3874 1.49725 21.3382L1.47665 21.2756C2.13251 22.9408 3.42526 24.2335 5.04759 24.8745L5.09044 24.8894C5.97864 25.2313 7.00691 25.4406 8.07968 25.4637H8.08956C9.40786 25.5254 9.82642 25.5378 13.1831 25.5378C16.5398 25.5378 16.9584 25.5222 18.2767 25.4637C19.3602 25.4398 20.3876 25.2313 21.3385 24.8679L21.2758 24.8894C22.941 24.2335 24.2338 22.9408 24.8748 21.3184L24.8896 21.2756C25.2324 20.3874 25.4408 19.3591 25.4639 18.2864V18.2765C25.5257 16.9582 25.5381 16.5396 25.5381 13.1829C25.5381 9.82618 25.5224 9.40762 25.4639 8.08932C25.44 7.00584 25.2315 5.9784 24.8682 5.02757L24.8896 5.09019C24.5617 4.2333 24.0772 3.50329 23.465 2.90182L23.4642 2.901C22.8627 2.28716 22.1319 1.80269 21.3162 1.48959L21.275 1.47559C20.3868 1.13283 19.3585 0.923549 18.2858 0.901303H18.2759C16.9576 0.839507 16.539 0.827148 13.1823 0.827148H13.1831Z"
        fill="white" />
</svg>