<svg width="51" height="77" viewBox="0 0 51 77" fill="none" xmlns="http://www.w3.org/2000/svg">
    <path
        d="M0.893311 25.2928C0.893311 31.6672 3.32343 37.7096 7.73812 42.3071C11.2635 45.9798 13.2108 50.8472 13.2232 56.0216H11.3735C10.3884 56.0216 9.58778 56.8222 9.58778 57.8074V68.3817C9.58778 69.3669 10.3884 70.1674 11.3735 70.1674H15.6569V74.9212C15.6569 75.6081 16.2125 76.1638 16.8994 76.1638H34.031C34.718 76.1638 35.2736 75.6081 35.2736 74.9212V70.1674H39.5569C40.5421 70.1674 41.3427 69.3669 41.3427 68.3817V67.0486C41.3427 66.3616 40.7871 65.806 40.1001 65.806C39.4131 65.806 38.8575 66.3616 38.8575 67.0486V67.6823H34.031H16.8994H12.0729V64.3362H21.0656C21.7526 64.3362 22.3082 63.7806 22.3082 63.0936C22.3082 62.4067 21.7526 61.8511 21.0656 61.8511H12.0729V58.505H38.8575V59.4458C38.8575 60.1328 39.4131 60.6884 40.1001 60.6884C40.7871 60.6884 41.3427 60.1328 41.3427 59.4458V57.8074C41.3427 56.8222 40.5421 56.0216 39.5569 56.0216H36.47C36.4682 56.0216 36.4664 56.0216 36.4647 56.0216H26.7069V39.5877L30.3317 35.2618C31.0027 35.3789 31.6754 35.4375 32.3429 35.4375C35.3748 35.4375 38.2966 34.2464 40.5084 32.0346C43.3929 29.1501 44.5414 25.0584 43.5757 21.0893C43.4657 20.6384 43.1124 20.2852 42.6616 20.1751C38.6942 19.213 34.6026 20.3597 31.718 23.2443C28.9861 25.9762 27.8128 29.7927 28.5157 33.5594L25.4643 37.1984L22.4129 33.5577C23.1159 29.7891 21.9425 25.9744 19.2106 23.2425C16.3261 20.358 12.2362 19.2112 8.2671 20.1733C7.81445 20.2834 7.46298 20.6349 7.35292 21.0875C6.38904 25.0549 7.53576 29.1465 10.4203 32.0328C12.6321 34.2446 15.5539 35.4357 18.5858 35.4357C19.2532 35.4357 19.9242 35.3771 20.597 35.26L24.2218 39.5859V56.0198H15.7083C15.6941 50.2028 13.5019 44.7231 9.53098 40.5853C5.56362 36.4529 3.37846 31.0228 3.37846 25.2928C3.37846 19.3639 5.69497 13.7989 9.90198 9.62212C14.1072 5.44529 19.6864 3.17138 25.6205 3.20866C37.3274 3.28854 47.1615 12.867 47.5396 24.5596C47.7313 30.5098 45.5887 36.1635 41.5042 40.4752C38.6143 43.5266 36.6191 47.2668 35.7351 51.2892C35.5878 51.9602 36.012 52.6223 36.683 52.7696C37.3522 52.917 38.0161 52.4927 38.1634 51.8217C38.9498 48.2413 40.7285 44.9077 43.3095 42.1847C47.8538 37.3866 50.2377 31.0991 50.0247 24.4798C49.8188 18.1302 47.181 12.1765 42.5977 7.7121C38.0161 3.24949 31.9932 0.767887 25.6383 0.723509C19.0402 0.682682 12.8309 3.21221 8.15172 7.85944C3.47076 12.5067 0.893311 18.6982 0.893311 25.2928ZM32.7884 70.1674V73.6786H18.142V70.1674H32.7884ZM33.4754 24.9999C35.5576 22.9177 38.4404 21.9875 41.3125 22.4366C41.7634 25.3105 40.8332 28.1933 38.751 30.2755C36.6688 32.3577 33.786 33.2878 30.9121 32.837C30.463 29.9648 31.3932 27.0821 33.4754 24.9999ZM12.1777 30.2755C10.0955 28.1933 9.16531 25.3105 9.61618 22.4366C12.4901 21.9875 15.3711 22.9177 17.4533 24.9999C19.5355 27.0821 20.4656 29.9648 20.0165 32.837C17.1444 33.2878 14.2599 32.3577 12.1777 30.2755Z"
        fill="#7C6A0A" />
    <path
        d="M34.2689 10.4244C33.6795 10.0729 32.9162 10.2646 32.5648 10.854C32.2133 11.4433 32.405 12.2066 32.9943 12.5581C33.1062 12.6255 33.2162 12.693 33.3263 12.7622C33.5322 12.8936 33.763 12.9557 33.9902 12.9557C34.402 12.9557 34.8049 12.7515 35.041 12.377C35.4085 11.7965 35.2363 11.0297 34.6558 10.6622C34.528 10.5824 34.3984 10.5025 34.2689 10.4244Z"
        fill="#7C6A0A" />
    <path
        d="M25.5833 7.99963H25.4644C21.4242 7.99963 17.4888 9.4286 14.3877 12.022C13.8605 12.4623 13.7913 13.2451 14.2315 13.7723C14.4765 14.0669 14.8297 14.2178 15.1847 14.2178C15.4652 14.2178 15.7492 14.1238 15.9817 13.9285C18.6391 11.7078 22.0065 10.4848 25.4608 10.4848H25.5709C26.4442 10.4901 27.3194 10.5753 28.1732 10.7333C28.8477 10.8593 29.4974 10.4138 29.6234 9.73924C29.7495 9.0647 29.3039 8.41501 28.6294 8.28898C27.63 8.10436 26.6058 8.00673 25.5833 7.99963Z"
        fill="#7C6A0A" />
    <path
        d="M41.2467 63.216C41.2165 63.1396 41.1775 63.0686 41.1331 63.0012C41.087 62.932 41.0355 62.8698 40.9787 62.8112C40.9201 62.7544 40.858 62.703 40.7887 62.6568C40.7213 62.6124 40.6503 62.5734 40.5739 62.5432C40.4994 62.5113 40.4213 62.4882 40.3414 62.4722C39.9385 62.3905 39.5089 62.5237 39.2213 62.8112C39.1627 62.8698 39.1113 62.932 39.0669 63.0012C39.0207 63.0686 38.9835 63.1396 38.9515 63.216C38.9213 63.2905 38.8965 63.3686 38.8805 63.4485C38.8645 63.5284 38.8574 63.61 38.8574 63.6899C38.8574 64.0183 38.9888 64.3378 39.2213 64.5686C39.4521 64.8011 39.7716 64.9325 40.1 64.9325C40.1799 64.9325 40.2615 64.9254 40.3414 64.9094C40.4213 64.8934 40.4994 64.8686 40.5739 64.8384C40.6503 64.8065 40.7213 64.7692 40.7887 64.723C40.858 64.6787 40.9201 64.6272 40.9787 64.5686C41.2094 64.3378 41.3426 64.0183 41.3426 63.6899C41.3426 63.61 41.3337 63.5284 41.3177 63.4485C41.3017 63.3686 41.2787 63.2905 41.2467 63.216Z"
        fill="#7C6A0A" />
    <path
        d="M26.9855 61.851C26.2985 61.851 25.7429 62.4066 25.7429 63.0935C25.7429 63.7805 26.2985 64.3361 26.9855 64.3361H28.6168C29.3038 64.3361 29.8594 63.7805 29.8594 63.0935C29.8594 62.4066 29.3038 61.851 28.6168 61.851H26.9855Z"
        fill="#7C6A0A" />
</svg>