<svg width="27" height="22" viewBox="0 0 27 22" fill="none" xmlns="http://www.w3.org/2000/svg">
    <path
        d="M26.5427 2.99742C25.5761 3.42932 24.5272 3.71724 23.4372 3.85092C24.5581 3.18252 25.4116 2.12336 25.8126 0.858531C24.7637 1.47552 23.612 1.92798 22.378 2.17477C21.3909 1.12589 19.9821 0.467773 18.4293 0.467773C15.4472 0.467773 13.0204 2.89459 13.0204 5.8767C13.0204 6.29831 13.0615 6.70964 13.1644 7.11068C8.67062 6.88445 4.68077 4.73527 2.01744 1.45495C1.5547 2.25704 1.28733 3.18252 1.28733 4.17998C1.28733 6.05151 2.24367 7.7071 3.69359 8.684C2.80924 8.65315 1.97631 8.40635 1.2462 8.00531V8.06701C1.2462 10.6892 3.10745 12.8795 5.58569 13.3731C5.13323 13.4965 4.64992 13.5685 4.15633 13.5685C3.8067 13.5685 3.46736 13.5376 3.1383 13.4759C3.82727 15.6251 5.8222 17.1881 8.18732 17.2293C6.33635 18.6792 4.00208 19.543 1.47243 19.543C1.04054 19.543 0.608649 19.5224 0.176758 19.471C2.57273 21.0032 5.41087 21.8978 8.46496 21.8978C18.419 21.8978 23.8588 13.6507 23.8588 6.50397C23.8588 6.26746 23.8588 6.03095 23.8485 5.80472C24.9077 5.03348 25.8229 4.08744 26.5427 2.99742Z"
        fill="white" />
</svg>